<?xml version="1.0" encoding="UTF-8" standalone="no"?>
<!-- Created with Inkscape (http://www.inkscape.org/) -->

<svg
   xmlns:dc="http://purl.org/dc/elements/1.1/"
   xmlns:cc="http://creativecommons.org/ns#"
   xmlns:rdf="http://www.w3.org/1999/02/22-rdf-syntax-ns#"
   xmlns:svg="http://www.w3.org/2000/svg"
   xmlns="http://www.w3.org/2000/svg"
   xmlns:sodipodi="http://sodipodi.sourceforge.net/DTD/sodipodi-0.dtd"
   xmlns:inkscape="http://www.inkscape.org/namespaces/inkscape"
   width="71.858124mm"
   height="93.960915mm"
   viewBox="0 0 71.858124 93.960915"
   version="1.1"
   id="svg2906"
   inkscape:version="0.92.4 (5da689c313, 2019-01-14)"
   sodipodi:docname="fall_tree.svg">
  <defs
     id="defs2900" />
  <sodipodi:namedview
     id="base"
     pagecolor="#ffffff"
     bordercolor="#666666"
     borderopacity="1.0"
     inkscape:pageopacity="0.0"
     inkscape:pageshadow="2"
     inkscape:zoom="0.49497475"
     inkscape:cx="-31.88726"
     inkscape:cy="107.58018"
     inkscape:document-units="mm"
     inkscape:current-layer="layer1"
     showgrid="false"
     fit-margin-top="0"
     fit-margin-left="0"
     fit-margin-right="0"
     fit-margin-bottom="0"
     inkscape:window-width="1366"
     inkscape:window-height="705"
     inkscape:window-x="-8"
     inkscape:window-y="-8"
     inkscape:window-maximized="1" />
  <metadata
     id="metadata2903">
    <rdf:RDF>
      <cc:Work
         rdf:about="">
        <dc:format>image/svg+xml</dc:format>
        <dc:type
           rdf:resource="http://purl.org/dc/dcmitype/StillImage" />
        <dc:title />
      </cc:Work>
    </rdf:RDF>
  </metadata>
  <g
     inkscape:label="Layer 1"
     inkscape:groupmode="layer"
     id="layer1"
     transform="translate(-57.809041,-72.370738)">
    <g
       id="g887">
      <path
         sodipodi:nodetypes="sssssscscss"
         inkscape:connector-curvature="0"
         id="rect4562"
         d="m 70.8282,84.50576 c 3.8666,-13.03259 12.7519,40.78842 24.8775,33.80774 9.1341,-5.25843 -13.5657,-56.11245 -5.3455,-44.11756 7.5012,10.94568 7.2415,11.02408 14.174,33.52232 3.7948,12.31518 22.8755,-33.05358 22.1227,-21.80265 -0.882,13.18274 -14.8388,27.13946 -22.3368,33.21483 -8.7162,7.06244 0.4843,39.98892 0.4843,39.98892 0,0 -3.1203,1.68602 -8.4849,1.54634 -6.5417,-0.17033 -8.9256,-3.38519 -8.9256,-3.38519 0,0 6.9782,-5.84442 4.6819,-19.64912 C 90.3223,127.08988 66.4346,99.31447 70.8282,84.50576 Z"
         style="opacity:1;fill:#000000;fill-opacity:1;fill-rule:nonzero;stroke:none;stroke-width:11.86871433;stroke-linecap:round;stroke-linejoin:round;stroke-miterlimit:4;stroke-dasharray:none;stroke-dashoffset:0;stroke-opacity:1;paint-order:stroke fill markers" />
      <path
         sodipodi:nodetypes="szscscssss"
         inkscape:connector-curvature="0"
         id="path4565-8"
         d="m 65.2406,86.48059 c 3.2375,-1.1992 6.4397,0.34252 5.7446,1.32122 -0.695,0.97871 -1.4529,0.78914 -4.0337,1.76514 -2.6406,0.9986 -4.6029,2.33771 -4.5961,2.71721 0.123,0.18615 0.6842,-0.31188 2.7359,-1.36474 2.1572,-1.107 7.0681,-2.58194 7.3174,-2.04368 0.8642,2.05869 -0.6706,4.5172 -2.9316,5.45548 -3.352,1.39098 -4.5772,1.79397 -6.9779,2.25817 -2.4953,0.48249 -4.675,0.39034 -4.6888,-0.13147 -0.081,-3.04455 3.4714,-8.51099 7.4302,-9.97733 z"
         style="opacity:1;fill:#800000;fill-opacity:1;fill-rule:nonzero;stroke:none;stroke-width:3.92504525;stroke-linecap:round;stroke-linejoin:round;stroke-miterlimit:4;stroke-dasharray:none;stroke-dashoffset:0;stroke-opacity:1;paint-order:stroke fill markers" />
      <path
         sodipodi:nodetypes="szscscssss"
         inkscape:connector-curvature="0"
         id="path4565-8-8"
         d="m 79.7623,82.96756 c -3.6665,-0.16695 -6.4119,2.39784 -5.3918,3.1555 1.0201,0.75766 1.7265,0.32609 4.6557,0.47926 2.9971,0.15671 5.4172,0.87061 5.5328,1.25259 -0.064,0.22556 -0.7937,-0.0938 -3.2118,-0.49271 -2.5425,-0.41945 -7.9929,-0.32835 -8.0716,0.2899 -0.2104,2.33606 2.1382,4.30671 4.7313,4.52417 3.8443,0.32238 5.2155,0.33467 7.797,0.0331 2.6831,-0.31343 4.8611,-1.10125 4.7066,-1.62789 -0.9013,-3.07275 -6.2649,-7.40979 -10.7482,-7.61394 z"
         style="opacity:1;fill:#782121;fill-opacity:1;fill-rule:nonzero;stroke:none;stroke-width:4.14778852;stroke-linecap:round;stroke-linejoin:round;stroke-miterlimit:4;stroke-dasharray:none;stroke-dashoffset:0;stroke-opacity:1;paint-order:stroke fill markers" />
      <path
         sodipodi:nodetypes="szscscssss"
         inkscape:connector-curvature="0"
         id="path4565-8-1"
         d="m 66.2045,99.11075 c 1.5813,-3.07247 4.9778,-4.08683 5.1229,-2.89196 0.145,1.19493 -0.5411,1.56506 -1.7882,4.0292 -1.2758,2.52106 -1.8231,4.83775 -1.5631,5.11478 0.2157,0.0553 0.2949,-0.69265 1.1003,-2.85713 0.8467,-2.27569 3.4765,-6.68079 4.0218,-6.44932 2.0202,0.94524 2.54,3.80462 1.5036,6.02496 -1.5369,3.29191 -2.1695,4.41697 -3.6275,6.3797 -1.5155,2.04016 -3.1844,3.44115 -3.5452,3.06322 -2.1049,-2.20502 -3.1581,-8.65664 -1.2246,-12.41345 z"
         style="opacity:1;fill:#782121;fill-opacity:1;fill-rule:nonzero;stroke:none;stroke-width:3.92504525;stroke-linecap:round;stroke-linejoin:round;stroke-miterlimit:4;stroke-dasharray:none;stroke-dashoffset:0;stroke-opacity:1;paint-order:stroke fill markers" />
      <path
         sodipodi:nodetypes="szscscssss"
         inkscape:connector-curvature="0"
         id="path4565-8-12"
         d="m 73.1605,109.95451 c 3.1573,-1.41342 6.4386,-0.0852 5.8027,0.93901 -0.6359,1.02426 -1.4023,0.88512 -3.9181,2.03188 -2.5739,1.17331 -4.4521,2.64188 -4.4232,3.0207 0.1334,0.17788 0.6638,-0.35712 2.6477,-1.54555 2.0858,-1.24955 6.8951,-3.04964 7.1748,-2.52827 0.981,2.00007 -0.4059,4.55898 -2.6051,5.6468 -3.2602,1.61269 -4.4581,2.09678 -6.8239,2.72008 -2.4592,0.64787 -4.6371,0.70049 -4.6813,0.17992 -0.2575,-3.03733 2.9657,-8.7363 6.8264,-10.46457 z"
         style="opacity:1;fill:#d4aa00;fill-opacity:1;fill-rule:nonzero;stroke:none;stroke-width:3.92504525;stroke-linecap:round;stroke-linejoin:round;stroke-miterlimit:4;stroke-dasharray:none;stroke-dashoffset:0;stroke-opacity:1;paint-order:stroke fill markers" />
      <path
         sodipodi:nodetypes="szscscssss"
         inkscape:connector-curvature="0"
         id="path4565-8-9"
         d="m 86.9883,93.42991 c -3.0797,-1.9966 -6.7448,-1.17041 -6.2473,-0.001 0.4975,1.16924 1.3252,1.15374 3.7756,2.76591 2.5071,1.6495 4.235,3.48841 4.1417,3.87644 -0.1692,0.16232 -0.6376,-0.48202 -2.5228,-2.04802 -1.9821,-1.64655 -6.7317,-4.32184 -7.1119,-3.82803 -1.3619,1.90964 -0.3309,4.79685 1.7971,6.29475 3.1546,2.22057 4.3317,2.92399 6.7117,3.96802 2.4739,1.08522 4.7515,1.50582 4.8843,0.97328 0.7746,-3.10713 -1.6627,-9.55986 -5.4284,-12.00121 z"
         style="opacity:1;fill:#800000;fill-opacity:1;fill-rule:nonzero;stroke:none;stroke-width:4.14778852;stroke-linecap:round;stroke-linejoin:round;stroke-miterlimit:4;stroke-dasharray:none;stroke-dashoffset:0;stroke-opacity:1;paint-order:stroke fill markers" />
      <path
         sodipodi:nodetypes="szscscssss"
         inkscape:connector-curvature="0"
         id="path4565-8-5"
         d="m 91.1972,106.76788 c 3.1909,-1.81363 6.8015,-0.77509 6.2367,0.36315 -0.5649,1.13824 -1.3902,1.07448 -3.9304,2.54104 -2.5991,1.50052 -4.4312,3.23549 -4.3608,3.62833 0.1599,0.17169 0.6646,-0.44397 2.638,-1.89742 2.0747,-1.52818 6.9722,-3.92192 7.323,-3.40683 1.2482,1.98583 0.05,4.80802 -2.161,6.17925 -3.2788,2.03284 -4.4949,2.66641 -6.9318,3.56992 -2.5329,0.93913 -4.8311,1.22617 -4.9326,0.68681 -0.5923,-3.14699 2.2172,-9.44662 6.1189,-11.66425 z"
         style="opacity:1;fill:#d4aa00;fill-opacity:1;fill-rule:nonzero;stroke:none;stroke-width:4.14778852;stroke-linecap:round;stroke-linejoin:round;stroke-miterlimit:4;stroke-dasharray:none;stroke-dashoffset:0;stroke-opacity:1;paint-order:stroke fill markers" />
      <path
         sodipodi:nodetypes="szscscssss"
         inkscape:connector-curvature="0"
         id="path4565-8-95"
         d="m 105.1517,84.89698 c -3.6665,-0.16695 -6.4118,2.39784 -5.3917,3.1555 1.0201,0.75766 1.7264,0.32609 4.6557,0.47926 2.997,0.15671 5.4171,0.87061 5.5328,1.25258 -0.065,0.22556 -0.7938,-0.0938 -3.2119,-0.4927 -2.5425,-0.41945 -7.9929,-0.32835 -8.0716,0.28989 -0.2103,2.33607 2.1382,4.30672 4.7313,4.52418 3.8444,0.32238 5.2155,0.33467 7.797,0.0331 2.6832,-0.31343 4.8611,-1.10125 4.7067,-1.62789 -0.9014,-3.07275 -6.265,-7.4098 -10.7483,-7.61394 z"
         style="opacity:1;fill:#d4aa00;fill-opacity:1;fill-rule:nonzero;stroke:none;stroke-width:4.14778852;stroke-linecap:round;stroke-linejoin:round;stroke-miterlimit:4;stroke-dasharray:none;stroke-dashoffset:0;stroke-opacity:1;paint-order:stroke fill markers" />
      <path
         sodipodi:nodetypes="szscscssss"
         inkscape:connector-curvature="0"
         id="path4565-8-6"
         d="m 109.8319,96.63504 c -3.5802,-0.80822 -6.7333,1.23461 -5.8621,2.15962 0.8712,0.92502 1.6424,0.62421 4.4992,1.28939 2.923,0.68058 5.1801,1.80837 5.2269,2.20472 -0.1031,0.21073 -0.765,-0.2317 -3.0755,-1.04907 -2.4293,-0.85941 -7.811,-1.72686 -7.997,-1.13204 -0.6173,2.26282 1.3486,4.61527 3.8633,5.28472 3.728,0.99246 5.0757,1.24535 7.67,1.40181 2.6965,0.16262 4.979,-0.23048 4.9194,-0.77607 -0.3478,-3.18329 -4.8664,-8.39482 -9.2442,-9.38308 z"
         style="opacity:1;fill:#aa8800;fill-opacity:1;fill-rule:nonzero;stroke:none;stroke-width:4.14778852;stroke-linecap:round;stroke-linejoin:round;stroke-miterlimit:4;stroke-dasharray:none;stroke-dashoffset:0;stroke-opacity:1;paint-order:stroke fill markers" />
      <path
         sodipodi:nodetypes="szscscssss"
         inkscape:connector-curvature="0"
         id="path4565-8-0"
         d="m 76.9434,121.23535 c 1.26,-3.21438 4.5419,-4.57792 4.8097,-3.40776 0.2677,1.17015 -0.3782,1.60955 -1.3676,4.18524 -1.0124,2.63533 -1.3192,4.99117 -1.0314,5.23868 0.2208,0.0321 0.2227,-0.71824 0.8026,-2.95019 0.6097,-2.34673 2.7777,-6.99346 3.3453,-6.82126 2.1116,0.72539 2.9248,3.50719 2.1201,5.81911 -1.193,3.42741 -1.7078,4.61005 -2.9593,6.71062 -1.3008,2.18337 -2.8204,3.74872 -3.2191,3.41175 -2.326,-1.96611 -4.041,-8.25578 -2.5003,-12.18619 z"
         style="opacity:1;fill:#aa8800;fill-opacity:1;fill-rule:nonzero;stroke:none;stroke-width:3.92504525;stroke-linecap:round;stroke-linejoin:round;stroke-miterlimit:4;stroke-dasharray:none;stroke-dashoffset:0;stroke-opacity:1;paint-order:stroke fill markers" />
      <path
         sodipodi:nodetypes="szscscssss"
         inkscape:connector-curvature="0"
         id="path4565-8-94"
         d="m 106.4724,117.50452 c -2.7846,-2.04261 -6.2819,-1.43653 -5.8806,-0.30358 0.4012,1.13294 1.1812,1.15829 3.3954,2.80587 2.2655,1.68573 3.7864,3.51328 3.6764,3.87679 -0.1689,0.14549 -0.5725,-0.48796 -2.2573,-2.0644 -1.7714,-1.6575 -6.0889,-4.42457 -6.4752,-3.97472 -1.3914,1.7451 -0.5864,4.53313 1.3308,6.05667 2.8422,2.25864 3.9098,2.98271 6.0904,4.0881 2.2665,1.14897 4.3863,1.6581 4.5418,1.1595 0.9074,-2.90913 -1.0169,-9.14663 -4.4217,-11.64424 z"
         style="opacity:1;fill:#d4aa00;fill-opacity:1;fill-rule:nonzero;stroke:none;stroke-width:3.92504525;stroke-linecap:round;stroke-linejoin:round;stroke-miterlimit:4;stroke-dasharray:none;stroke-dashoffset:0;stroke-opacity:1;paint-order:stroke fill markers" />
      <path
         sodipodi:nodetypes="szscscssss"
         inkscape:connector-curvature="0"
         id="path4565-8-7"
         d="m 129.4871,97.1018 c -0.7392,-3.38485 -3.7524,-5.23548 -4.1971,-4.11294 -0.4445,1.12265 0.1217,1.65673 0.6941,4.36594 0.5857,2.77196 0.5214,5.1596 0.2003,5.36214 -0.222,-10e-4 -0.1073,-0.74743 -0.3307,-3.05318 -0.2348,-2.42433 -1.6439,-7.36978 -2.2284,-7.28439 -2.1874,0.40215 -3.4183,3.04405 -2.9865,5.46321 0.6403,3.58644 0.9626,4.83953 1.8663,7.11612 0.9393,2.36633 2.1895,4.15148 2.6335,3.87676 2.5908,-1.60282 5.2523,-7.59484 4.3485,-11.73367 z"
         style="opacity:1;fill:#800000;fill-opacity:1;fill-rule:nonzero;stroke:none;stroke-width:3.92504525;stroke-linecap:round;stroke-linejoin:round;stroke-miterlimit:4;stroke-dasharray:none;stroke-dashoffset:0;stroke-opacity:1;paint-order:stroke fill markers" />
      <path
         sodipodi:nodetypes="szscscssss"
         inkscape:connector-curvature="0"
         id="path4565-8-63"
         d="m 120.5717,112.54205 c -1.3056,-3.19609 -4.6066,-4.5128 -4.8577,-3.33895 -0.2511,1.17386 0.401,1.60402 1.4271,4.16539 1.0497,2.62062 1.3901,4.97188 1.1058,5.22345 -0.2203,0.0352 -0.2329,-0.71501 -0.8445,-2.93847 -0.643,-2.3378 -2.877,-6.9532 -3.4421,-6.77294 -2.1011,0.75536 -2.8746,3.54847 -2.037,5.84869 1.2417,3.41008 1.7732,4.58527 3.0545,6.66782 1.3317,2.16462 2.8735,3.70818 3.2673,3.36556 2.2978,-1.99901 3.9231,-8.31247 2.3266,-12.22055 z"
         style="opacity:1;fill:#782121;fill-opacity:1;fill-rule:nonzero;stroke:none;stroke-width:3.92504525;stroke-linecap:round;stroke-linejoin:round;stroke-miterlimit:4;stroke-dasharray:none;stroke-dashoffset:0;stroke-opacity:1;paint-order:stroke fill markers" />
      <path
         sodipodi:nodetypes="szscscssss"
         inkscape:connector-curvature="0"
         id="path4565-8-87"
         d="m 120.4925,80.00475 c 3.4665,0.16354 5.8569,2.82385 4.8381,3.44944 -1.0187,0.62552 -1.6512,0.15651 -4.4221,0.0445 -2.8352,-0.11455 -5.1694,0.34714 -5.3074,0.69741 0.044,0.21849 0.7548,-0.019 3.0631,-0.18366 2.427,-0.17313 7.5542,0.39011 7.5812,0.98032 0.02,2.2226 -2.3428,3.87631 -4.8021,3.85438 -3.6459,-0.0324 -4.9385,-0.14091 -7.3472,-0.6515 -2.5036,-0.53067 -4.4951,-1.46471 -4.3093,-1.94811 1.0835,-2.82027 6.4669,-6.44283 10.7056,-6.24284 z"
         style="opacity:1;fill:#8d0000;fill-opacity:1;fill-rule:nonzero;stroke:none;stroke-width:3.92504525;stroke-linecap:round;stroke-linejoin:round;stroke-miterlimit:4;stroke-dasharray:none;stroke-dashoffset:0;stroke-opacity:1;paint-order:stroke fill markers" />
      <path
         sodipodi:nodetypes="szscscssss"
         inkscape:connector-curvature="0"
         id="path4565-8-957"
         d="m 101.3259,75.10031 c -2.2646,-2.6109 -5.8266,-2.81792 -5.69,-1.62934 0.1366,1.18859 0.8946,1.39028 2.6901,3.48904 1.8371,2.14739 2.9129,4.26313 2.723,4.59026 -0.1984,0.10261 -0.4503,-0.60272 -1.7434,-2.5123 -1.3596,-2.00789 -4.9615,-5.66875 -5.4415,-5.32064 -1.7575,1.37449 -1.6001,4.25804 -0.067,6.16929 2.2721,2.83325 3.1538,3.7771 5.0391,5.34309 1.9594,1.62758 3.9201,2.60219 4.1852,2.15443 1.5469,-2.61202 1.0739,-9.09121 -1.6951,-12.28383 z"
         style="opacity:1;fill:#782121;fill-opacity:1;fill-rule:nonzero;stroke:none;stroke-width:3.92504525;stroke-linecap:round;stroke-linejoin:round;stroke-miterlimit:4;stroke-dasharray:none;stroke-dashoffset:0;stroke-opacity:1;paint-order:stroke fill markers" />
      <path
         sodipodi:nodetypes="szscscssss"
         inkscape:connector-curvature="0"
         id="path4565-8-53"
         d="m 85.174,74.93569 c 3.0466,-1.62434 6.4272,-0.52795 5.8704,0.53544 -0.557,1.06342 -1.3335,0.97763 -3.7593,2.29236 -2.482,1.34513 -4.2462,2.93636 -4.1883,3.31144 0.1473,0.16774 0.636,-0.4012 2.5272,-1.72078 1.9884,-1.38744 6.6559,-3.51037 6.9755,-3.01059 1.1336,1.92353 -0.056,4.56639 -2.1702,5.80064 -3.1341,1.82976 -4.2938,2.39407 -6.6102,3.17738 -2.4075,0.81416 -4.5797,1.01639 -4.6637,0.50121 -0.4903,-3.0059 2.2935,-8.90098 6.0186,-10.88713 z"
         style="opacity:1;fill:#d4aa00;fill-opacity:1;fill-rule:nonzero;stroke:none;stroke-width:3.92504525;stroke-linecap:round;stroke-linejoin:round;stroke-miterlimit:4;stroke-dasharray:none;stroke-dashoffset:0;stroke-opacity:1;paint-order:stroke fill markers" />
      <path
         sodipodi:nodetypes="szscscssss"
         inkscape:connector-curvature="0"
         id="path4565-8-8-32"
         d="m 107.649,149.48593 c -2.366,-0.0594 -4.138,0.84791 -3.4797,1.11607 0.6582,0.26817 1.1141,0.11553 3.0044,0.16996 1.9339,0.0557 3.4956,0.30849 3.5702,0.44365 -0.041,0.0798 -0.5123,-0.0333 -2.0726,-0.1746 -1.6406,-0.14861 -5.1578,-0.11682 -5.2087,0.10193 -0.1359,0.82655 1.3795,1.52402 3.0528,1.60118 2.4807,0.11437 3.3655,0.11884 5.0314,0.0123 1.7315,-0.11068 3.1371,-0.38927 3.0375,-0.57562 -0.5814,-1.08731 -4.0422,-2.62233 -6.9353,-2.69493 z"
         style="opacity:1;fill:#782121;fill-opacity:1;fill-rule:nonzero;stroke:none;stroke-width:1.98198152;stroke-linecap:round;stroke-linejoin:round;stroke-miterlimit:4;stroke-dasharray:none;stroke-dashoffset:0;stroke-opacity:1;paint-order:stroke fill markers" />
      <path
         sodipodi:nodetypes="szscscssss"
         inkscape:connector-curvature="0"
         id="path4565-8-12-7"
         d="m 81.2397,152.85546 c 3.1573,-0.65458 6.4386,-0.0395 5.8027,0.43487 -0.6359,0.47436 -1.4023,0.40992 -3.9181,0.941 -2.5739,0.54339 -4.4521,1.22351 -4.4232,1.39895 0.1334,0.0824 0.6638,-0.16539 2.6477,-0.71578 2.0858,-0.57869 6.8951,-1.41234 7.1748,-1.17089 0.981,0.92627 -0.4059,2.11135 -2.6051,2.61514 -3.2602,0.74687 -4.4581,0.97106 -6.8239,1.25973 -2.4592,0.30004 -4.6371,0.32441 -4.6813,0.0833 -0.2575,-1.40665 2.9657,-4.04594 6.8264,-4.84634 z"
         style="opacity:1;fill:#d4aa00;fill-opacity:1;fill-rule:nonzero;stroke:none;stroke-width:2.67110896;stroke-linecap:round;stroke-linejoin:round;stroke-miterlimit:4;stroke-dasharray:none;stroke-dashoffset:0;stroke-opacity:1;paint-order:stroke fill markers" />
      <path
         sodipodi:nodetypes="szscscssss"
         inkscape:connector-curvature="0"
         id="path4565-8-9-4"
         d="m 80.3129,160.5458 c -2.5109,-0.94447 -5.4991,-0.55366 -5.0935,-4.8e-4 0.4056,0.5531 1.0805,0.54577 3.0782,1.30839 2.0442,0.78028 3.453,1.65015 3.3768,1.83371 -0.1379,0.0768 -0.5198,-0.22802 -2.0567,-0.9688 -1.6161,-0.77888 -5.4886,-2.0444 -5.7985,-1.81081 -1.1104,0.90334 -0.2698,2.2691 1.4652,2.97767 2.572,1.05042 3.5316,1.38316 5.4721,1.87703 2.0171,0.51335 3.874,0.71231 3.9823,0.4604 0.6315,-1.4698 -1.3556,-4.52219 -4.4259,-5.67705 z"
         style="opacity:1;fill:#800000;fill-opacity:1;fill-rule:nonzero;stroke:none;stroke-width:2.57589531;stroke-linecap:round;stroke-linejoin:round;stroke-miterlimit:4;stroke-dasharray:none;stroke-dashoffset:0;stroke-opacity:1;paint-order:stroke fill markers" />
      <path
         sodipodi:nodetypes="szscscssss"
         inkscape:connector-curvature="0"
         id="path4565-8-94-7"
         d="m 112.0982,135.56455 c -2.0036,-1.34295 -4.5199,-0.94447 -4.2312,-0.19959 0.2887,0.74487 0.8499,0.76154 2.4431,1.84477 1.63,1.10832 2.7243,2.30988 2.6451,2.54887 -0.1215,0.0957 -0.4119,-0.32082 -1.6241,-1.35728 -1.2745,-1.08975 -4.381,-2.90902 -4.6589,-2.61325 -1.0012,1.14735 -0.422,2.98039 0.9575,3.98207 2.045,1.48499 2.8131,1.96104 4.3821,2.6878 1.6307,0.75541 3.1559,1.09015 3.2678,0.76234 0.6529,-1.91267 -0.7317,-6.01363 -3.1814,-7.65573 z"
         style="opacity:1;fill:#782121;fill-opacity:1;fill-rule:nonzero;stroke:none;stroke-width:2.69960141;stroke-linecap:round;stroke-linejoin:round;stroke-miterlimit:4;stroke-dasharray:none;stroke-dashoffset:0;stroke-opacity:1;paint-order:stroke fill markers" />
      <path
         sodipodi:nodetypes="szscscssss"
         inkscape:connector-curvature="0"
         id="path4565-8-7-7"
         d="m 94.2147,161.4599 c -2.9828,-0.305 -5.4887,0.7226 -4.731,1.13954 0.758,0.41687 1.3793,0.2592 3.7602,0.51213 2.4361,0.25876 4.3435,0.74203 4.3994,0.92752 -0.075,0.10144 -0.6398,-0.0929 -2.5776,-0.42895 -2.0375,-0.35333 -6.5058,-0.64829 -6.6329,-0.36449 -0.4088,1.07777 1.3127,2.1434 3.412,2.40556 3.1124,0.38859 4.2329,0.47923 6.3754,0.49827 2.2269,0.0198 4.0886,-0.2132 4.0156,-0.46866 -0.4258,-1.49066 -4.3741,-3.84796 -8.0211,-4.22092 z"
         style="opacity:1;fill:#782121;fill-opacity:1;fill-rule:nonzero;stroke:none;stroke-width:2.5846045;stroke-linecap:round;stroke-linejoin:round;stroke-miterlimit:4;stroke-dasharray:none;stroke-dashoffset:0;stroke-opacity:1;paint-order:stroke fill markers" />
      <path
         sodipodi:nodetypes="szscscssss"
         inkscape:connector-curvature="0"
         id="path4565-8-957-6"
         d="m 112.2868,158.57638 c -2.3397,-0.86003 -5.1283,-0.55126 -4.7514,-0.0601 0.3767,0.49116 1.0062,0.49264 2.8676,1.18669 1.9047,0.71019 3.2163,1.49174 3.1448,1.65225 -0.1291,0.0659 -0.4844,-0.20662 -1.9159,-0.87608 -1.5052,-0.70396 -5.114,-1.86227 -5.4039,-1.66046 -1.0383,0.78148 -0.2582,1.99249 1.3585,2.63594 2.3961,0.9539 3.2903,1.25776 5.0992,1.71487 1.8801,0.47506 3.6117,0.6718 3.7133,0.45146 0.5936,-1.28523 -1.2514,-3.99304 -4.112,-5.04468 z"
         style="opacity:1;fill:#d4aa00;fill-opacity:1;fill-rule:nonzero;stroke:none;stroke-width:2.33321667;stroke-linecap:round;stroke-linejoin:round;stroke-miterlimit:4;stroke-dasharray:none;stroke-dashoffset:0;stroke-opacity:1;paint-order:stroke fill markers" />
    </g>
  </g>
</svg>
