<?xml version="1.0" encoding="UTF-8" standalone="no"?>
<!-- Created with Inkscape (http://www.inkscape.org/) -->

<svg
   xmlns:dc="http://purl.org/dc/elements/1.1/"
   xmlns:cc="http://creativecommons.org/ns#"
   xmlns:rdf="http://www.w3.org/1999/02/22-rdf-syntax-ns#"
   xmlns:svg="http://www.w3.org/2000/svg"
   xmlns="http://www.w3.org/2000/svg"
   xmlns:sodipodi="http://sodipodi.sourceforge.net/DTD/sodipodi-0.dtd"
   xmlns:inkscape="http://www.inkscape.org/namespaces/inkscape"
   width="82.981895mm"
   height="99.09816mm"
   viewBox="0 0 82.981896 99.098157"
   version="1.1"
   id="svg8"
   inkscape:version="0.92.4 (5da689c313, 2019-01-14)"
   sodipodi:docname="person_locked.svg">
  <defs
     id="defs2" />
  <sodipodi:namedview
     id="base"
     pagecolor="#ffffff"
     bordercolor="#666666"
     borderopacity="1.0"
     inkscape:pageopacity="0.0"
     inkscape:pageshadow="2"
     inkscape:zoom="0.35"
     inkscape:cx="553.11665"
     inkscape:cy="94.873416"
     inkscape:document-units="mm"
     inkscape:current-layer="layer1"
     showgrid="true"
     inkscape:snap-global="false"
     inkscape:window-width="1920"
     inkscape:window-height="1017"
     inkscape:window-x="1358"
     inkscape:window-y="-8"
     inkscape:window-maximized="1"
     fit-margin-top="0"
     fit-margin-left="0"
     fit-margin-right="0"
     fit-margin-bottom="0">
    <inkscape:grid
       type="xygrid"
       id="grid815"
       originx="-61.696615"
       originy="-101.26339" />
  </sodipodi:namedview>
  <metadata
     id="metadata5">
    <rdf:RDF>
      <cc:Work
         rdf:about="">
        <dc:format>image/svg+xml</dc:format>
        <dc:type
           rdf:resource="http://purl.org/dc/dcmitype/StillImage" />
        <dc:title></dc:title>
      </cc:Work>
    </rdf:RDF>
  </metadata>
  <g
     inkscape:label="Layer 1"
     inkscape:groupmode="layer"
     id="layer1"
     transform="translate(-61.696553,-96.638418)">
    <circle
       style="opacity:1;fill:#3d7200;fill-opacity:1;fill-rule:nonzero;stroke:none;stroke-width:3.68488526;stroke-linecap:round;stroke-linejoin:round;stroke-miterlimit:4;stroke-dasharray:none;stroke-dashoffset:0;stroke-opacity:1;paint-order:stroke fill markers"
       id="path819"
       cx="103.1875"
       cy="122.43262"
       r="25.794199" />
    <path
       style="opacity:1;fill:#3d7200;fill-opacity:1;fill-rule:nonzero;stroke:none;stroke-width:7.31259108;stroke-linecap:round;stroke-linejoin:round;stroke-miterlimit:4;stroke-dasharray:none;stroke-dashoffset:0;stroke-opacity:1;paint-order:stroke fill markers"
       d="m 103.86186,144.92003 c -22.914699,0 -42.165303,9.48898 -42.165307,44.36688 0,0 0.02664,6.27185 42.004437,6.44668 39.291,0.16364 40.97746,-6.44668 40.97746,-6.44668 0,-34.8779 -17.90187,-44.36688 -40.81659,-44.36688 z"
       id="path819-7"
       inkscape:connector-curvature="0"
       sodipodi:nodetypes="scscs" />
    <g
       aria-label="2020"
       style="font-style:normal;font-variant:normal;font-weight:bold;font-stretch:normal;font-size:19.4069252px;line-height:1.25;font-family:Verdana;-inkscape-font-specification:'Verdana, Bold';font-variant-ligatures:normal;font-variant-caps:normal;font-variant-numeric:normal;font-feature-settings:normal;text-align:start;letter-spacing:0px;word-spacing:0px;writing-mode:lr-tb;text-anchor:start;fill:#a2e07d;fill-opacity:1;stroke:none;stroke-width:0.48517314"
       id="text1006" />
    <g
       id="g2667">
      <path
         inkscape:connector-curvature="0"
         id="rect928"
         d="m 283.01615,102.84287 v 7.49231 c 0,3.06364 -2.26757,5.52997 -5.08415,5.52997 -2.81656,0 -5.08364,-2.46633 -5.08364,-5.52997 v -7.08501 c -5.44651,1.43318 -8.90201,6.4837 -8.90201,12.52767 v 54.56949 c 0,7.16578 4.85719,12.93496 12.13112,12.93496 h 74.36019 c 7.27394,0 12.13113,-5.76918 12.13113,-12.93496 v -54.56949 c 0,-5.94687 -3.34732,-10.92821 -8.64301,-12.45207 v 6.83089 c 0,3.06364 -2.26755,5.53045 -5.08413,5.53045 -2.81656,0 -5.08413,-2.46681 -5.08413,-5.53045 v -7.31379 z m 23.40321,4.49539 c 1.01968,0 1.87548,0.15196 2.56719,0.45607 0.69172,0.29816 1.25816,0.74559 1.69943,1.34189 0.43531,0.58438 0.75148,1.3056 0.94825,2.16428 0.19678,0.85272 0.2951,1.83978 0.2951,2.96083 0,1.12105 -0.10162,2.12599 -0.30436,3.01449 -0.20274,0.88253 -0.51842,1.60706 -0.94775,2.17355 -0.44128,0.57841 -1.00772,1.01641 -1.69943,1.31456 -0.69172,0.29219 -1.54469,0.43852 -2.55843,0.43852 -0.99583,0 -1.84551,-0.14915 -2.54913,-0.44729 -0.70363,-0.29816 -1.2729,-0.73947 -1.7082,-1.32384 -0.44127,-0.58438 -0.76024,-1.30891 -0.95704,-2.17355 -0.19678,-0.8706 -0.2956,-1.8666 -0.2956,-2.98766 0,-1.15683 0.10165,-2.16128 0.30439,-3.014 0.20274,-0.85271 0.52453,-1.57443 0.96581,-2.16477 0.44127,-0.58437 1.01383,-1.02237 1.71746,-1.31457 0.70365,-0.29218 1.54439,-0.43851 2.52231,-0.43851 z m 26.04652,0 c 1.01968,0 1.87548,0.15196 2.56719,0.45607 0.69172,0.29816 1.25816,0.74559 1.69943,1.34189 0.43531,0.58438 0.75146,1.3056 0.94825,2.16428 0.19678,0.85272 0.2951,1.83978 0.2951,2.96083 0,1.12105 -0.10115,2.12599 -0.30389,3.01449 -0.20274,0.88253 -0.51891,1.60706 -0.94825,2.17355 -0.44125,0.57841 -1.00772,1.01641 -1.69943,1.31456 -0.69157,0.29219 -1.54469,0.43852 -2.5584,0.43852 -0.99583,0 -1.84551,-0.14915 -2.54913,-0.44729 -0.70366,-0.29816 -1.27292,-0.73947 -1.70823,-1.32384 -0.44124,-0.58438 -0.76024,-1.30891 -0.95701,-2.17355 -0.19678,-0.8706 -0.2956,-1.8666 -0.2956,-2.98766 0,-1.15683 0.10162,-2.16128 0.30439,-3.014 0.20274,-0.85271 0.52453,-1.57443 0.96578,-2.16477 0.44127,-0.58437 1.01386,-1.02237 1.71749,-1.31457 0.70363,-0.29218 1.54436,-0.43851 2.52231,-0.43851 z m -39.22195,0.009 c 1.66964,0 2.94281,0.35192 3.81931,1.05556 0.87657,0.69767 1.31507,1.68755 1.31507,2.96961 0,0.84078 -0.2117,1.63964 -0.6351,2.39695 -0.41742,0.7573 -1.05818,1.53877 -1.92282,2.34379 -0.54265,0.50089 -1.08839,0.9629 -1.637,1.38627 -0.54858,0.41742 -0.93908,0.70958 -1.17164,0.87654 h 5.9836 v 2.54914 h -10.45606 v -2.20038 c 0.79905,-0.57841 1.59791,-1.19238 2.39694,-1.84234 0.80502,-0.64998 1.44911,-1.21079 1.93211,-1.68187 0.72151,-0.69767 1.23434,-1.30551 1.53845,-1.8243 0.30411,-0.51878 0.45608,-1.0316 0.45608,-1.53846 0,-0.60823 -0.19665,-1.07635 -0.59022,-1.40432 -0.3876,-0.33393 -0.94793,-0.50095 -1.68137,-0.50095 -0.54862,0 -1.1273,0.11338 -1.73552,0.33998 -0.60228,0.2266 -1.16261,0.51546 -1.68138,0.86727 h -0.28633 v -2.96034 c 0.42337,-0.18485 1.04675,-0.36975 1.86966,-0.5546 0.82887,-0.18486 1.65735,-0.27755 2.48622,-0.27755 z m 26.0465,0 c 1.66966,0 2.94275,0.35192 3.81933,1.05556 0.87657,0.69767 1.31505,1.68755 1.31505,2.96961 0,0.84077 -0.21171,1.63964 -0.63508,2.39695 -0.41742,0.7573 -1.05818,1.53877 -1.92282,2.34379 -0.54265,0.50089 -1.08841,0.9629 -1.637,1.38627 -0.54861,0.41742 -0.93908,0.70958 -1.17164,0.87654 h 5.98358 v 2.54914 H 314.5858 v -2.20038 c 0.79903,-0.57841 1.59789,-1.19238 2.39695,-1.84234 0.80502,-0.64998 1.44908,-1.21079 1.93209,-1.68187 0.72153,-0.69767 1.23436,-1.30551 1.53847,-1.8243 0.30411,-0.51878 0.45608,-1.0316 0.45608,-1.53846 0,-0.60823 -0.19665,-1.07635 -0.59022,-1.40432 -0.3876,-0.33393 -0.94793,-0.50095 -1.68137,-0.50095 -0.54862,0 -1.1274,0.11338 -1.73552,0.33998 -0.60228,0.2266 -1.16261,0.51546 -1.6814,0.86727 h -0.28633 v -2.96034 c 0.42339,-0.18485 1.04677,-0.36975 1.86968,-0.5546 0.82885,-0.18486 1.65745,-0.27755 2.4862,-0.27755 z m -12.87107,2.4511 c -0.73345,0 -1.25801,0.34298 -1.57406,1.02873 -0.31605,0.67978 -0.47411,1.83056 -0.47411,3.45251 0,1.5802 0.16088,2.71923 0.4829,3.4169 0.322,0.69767 0.84376,1.04629 1.56527,1.04629 0.72154,0 1.2433,-0.34862 1.56529,-1.04629 0.322,-0.69767 0.48291,-1.84282 0.48291,-3.43495 0,-1.61002 -0.15809,-2.75468 -0.47411,-3.43446 -0.31606,-0.68575 -0.84062,-1.02873 -1.57409,-1.02873 z m 26.04652,0 c -0.73345,0 -1.25803,0.34298 -1.57406,1.02873 -0.31605,0.67978 -0.47414,1.83056 -0.47414,3.45251 0,1.5802 0.16091,2.71923 0.48291,3.4169 0.32202,0.69767 0.84376,1.04629 1.56529,1.04629 0.72153,0 1.24327,-0.34862 1.56529,-1.04629 0.322,-0.69767 0.48291,-1.84282 0.48291,-3.43495 0,-1.61002 -0.15759,-2.75468 -0.47364,-3.43446 -0.31605,-0.68575 -0.84111,-1.02873 -1.57456,-1.02873 z m -54.20512,14.60708 h 69.99362 c 4.39326,0 7.92983,3.48436 7.92983,7.81229 v 37.09231 c 0,4.32794 -3.53657,7.8118 -7.92983,7.8118 h -69.99362 c -4.39327,0 -7.92984,-3.48386 -7.92984,-7.8118 v -37.09232 c 0,-4.32793 3.53657,-7.81229 7.92984,-7.81229 z"
         style="opacity:1;fill:#3d7200;fill-opacity:1;fill-rule:nonzero;stroke:none;stroke-width:2.42577648;stroke-linecap:round;stroke-linejoin:round;stroke-miterlimit:4;stroke-dasharray:none;stroke-dashoffset:0;stroke-opacity:1;paint-order:stroke fill markers" />
      <rect
         ry="0"
         y="144.31822"
         x="276.20114"
         height="11.952021"
         width="19.338776"
         id="rect933"
         style="opacity:1;fill:#3d7200;fill-opacity:1;fill-rule:nonzero;stroke:none;stroke-width:2.497437;stroke-linecap:round;stroke-linejoin:round;stroke-miterlimit:4;stroke-dasharray:none;stroke-dashoffset:0;stroke-opacity:1;paint-order:stroke fill markers" />
      <rect
         ry="0"
         y="144.31822"
         x="303.58817"
         height="11.952021"
         width="19.338776"
         id="rect933-9"
         style="opacity:1;fill:#3d7200;fill-opacity:1;fill-rule:nonzero;stroke:none;stroke-width:2.497437;stroke-linecap:round;stroke-linejoin:round;stroke-miterlimit:4;stroke-dasharray:none;stroke-dashoffset:0;stroke-opacity:1;paint-order:stroke fill markers" />
      <rect
         ry="0"
         y="159.30283"
         x="303.58817"
         height="11.952021"
         width="19.338776"
         id="rect933-5"
         style="opacity:1;fill:#3d7200;fill-opacity:1;fill-rule:nonzero;stroke:none;stroke-width:2.497437;stroke-linecap:round;stroke-linejoin:round;stroke-miterlimit:4;stroke-dasharray:none;stroke-dashoffset:0;stroke-opacity:1;paint-order:stroke fill markers" />
      <rect
         ry="0"
         y="144.31822"
         x="331.14471"
         height="11.952021"
         width="19.338776"
         id="rect933-6"
         style="opacity:1;fill:#3d7200;fill-opacity:1;fill-rule:nonzero;stroke:none;stroke-width:2.497437;stroke-linecap:round;stroke-linejoin:round;stroke-miterlimit:4;stroke-dasharray:none;stroke-dashoffset:0;stroke-opacity:1;paint-order:stroke fill markers" />
      <rect
         ry="0"
         y="159.30283"
         x="331.14471"
         height="11.952021"
         width="19.338776"
         id="rect933-8"
         style="opacity:1;fill:#3d7200;fill-opacity:1;fill-rule:nonzero;stroke:none;stroke-width:2.497437;stroke-linecap:round;stroke-linejoin:round;stroke-miterlimit:4;stroke-dasharray:none;stroke-dashoffset:0;stroke-opacity:1;paint-order:stroke fill markers" />
      <rect
         ry="0"
         y="159.30283"
         x="276.20114"
         height="11.952021"
         width="19.338776"
         id="rect933-2"
         style="opacity:1;fill:#3d7200;fill-opacity:1;fill-rule:nonzero;stroke:none;stroke-width:2.497437;stroke-linecap:round;stroke-linejoin:round;stroke-miterlimit:4;stroke-dasharray:none;stroke-dashoffset:0;stroke-opacity:1;paint-order:stroke fill markers" />
      <rect
         ry="0"
         y="129.1552"
         x="331.14471"
         height="11.952021"
         width="19.338776"
         id="rect933-6-0"
         style="opacity:1;fill:#3d7200;fill-opacity:1;fill-rule:nonzero;stroke:none;stroke-width:2.497437;stroke-linecap:round;stroke-linejoin:round;stroke-miterlimit:4;stroke-dasharray:none;stroke-dashoffset:0;stroke-opacity:1;paint-order:stroke fill markers" />
      <rect
         ry="0"
         y="129.1552"
         x="303.58817"
         height="11.952021"
         width="19.338776"
         id="rect933-6-9"
         style="opacity:1;fill:#3d7200;fill-opacity:1;fill-rule:nonzero;stroke:none;stroke-width:2.497437;stroke-linecap:round;stroke-linejoin:round;stroke-miterlimit:4;stroke-dasharray:none;stroke-dashoffset:0;stroke-opacity:1;paint-order:stroke fill markers" />
      <rect
         ry="4.8853369"
         y="93.424019"
         x="345.54144"
         height="19.541348"
         width="6.4219813"
         id="rect1023-9"
         style="opacity:1;fill:#3d7200;fill-opacity:1;fill-rule:nonzero;stroke:none;stroke-width:1.56194782;stroke-linecap:round;stroke-linejoin:round;stroke-miterlimit:4;stroke-dasharray:none;stroke-dashoffset:0;stroke-opacity:1;paint-order:stroke fill markers" />
      <rect
         ry="4.8853374"
         y="93.321983"
         x="275.11368"
         height="19.541349"
         width="5.886816"
         id="rect1023-9-9"
         style="opacity:1;fill:#3d7200;fill-opacity:1;fill-rule:nonzero;stroke:none;stroke-width:1.49545121;stroke-linecap:round;stroke-linejoin:round;stroke-miterlimit:4;stroke-dasharray:none;stroke-dashoffset:0;stroke-opacity:1;paint-order:stroke fill markers" />
    </g>
    <path
       style="opacity:1;fill:#3d7200;fill-opacity:1;fill-rule:nonzero;stroke:none;stroke-width:1.65994096;stroke-linecap:round;stroke-linejoin:round;stroke-miterlimit:4;stroke-dasharray:none;stroke-dashoffset:0;stroke-opacity:1;paint-order:stroke fill markers"
       d="m 474.26002,182.2176 c 6.03303,12.31841 11.54135,21.05662 19.871,31.9528 -1.94447,6.309 -13.25913,1.45223 -9.68094,-4.32577 11.00406,-24.94873 28.30349,-48.12738 44.67596,-67.54027 4.3319,-5.13635 9.04821,-9.55401 14.01281,-14.49027 7.7326,-6.74485 17.02032,3.78517 5.90939,7.34082 -3.64842,0.81858 -11.35645,7.20156 -15.50878,12.33984 -19.90544,24.63196 -25.08022,45.64386 -33.83079,67.68815 -4.12753,6.30266 -12.38368,3.9737 -17.93011,-1.95667 -9.57299,-12.23783 -16.26135,-20.92167 -22.80445,-33.77685 -1.52596,-6.02 7.56636,-10.98293 11.66907,-6.19208 1.20142,1.76651 0.94066,3.00821 3.61684,8.9603 z"
       id="path1234"
       inkscape:connector-curvature="0"
       sodipodi:nodetypes="cccsccsccccc" />
  </g>
</svg>
