<?xml version="1.0" encoding="UTF-8" standalone="no"?>
<!-- Created with Inkscape (http://www.inkscape.org/) -->

<svg
   xmlns:dc="http://purl.org/dc/elements/1.1/"
   xmlns:cc="http://creativecommons.org/ns#"
   xmlns:rdf="http://www.w3.org/1999/02/22-rdf-syntax-ns#"
   xmlns:svg="http://www.w3.org/2000/svg"
   xmlns="http://www.w3.org/2000/svg"
   xmlns:sodipodi="http://sodipodi.sourceforge.net/DTD/sodipodi-0.dtd"
   xmlns:inkscape="http://www.inkscape.org/namespaces/inkscape"
   width="82.981895mm"
   height="99.09816mm"
   viewBox="0 0 82.981896 99.098157"
   version="1.1"
   id="svg8"
   inkscape:version="0.92.4 (5da689c313, 2019-01-14)"
   sodipodi:docname="person_green.svg">
  <defs
     id="defs2" />
  <sodipodi:namedview
     id="base"
     pagecolor="#ffffff"
     bordercolor="#666666"
     borderopacity="1.0"
     inkscape:pageopacity="0.0"
     inkscape:pageshadow="2"
     inkscape:zoom="0.24748737"
     inkscape:cx="551.71005"
     inkscape:cy="31.116973"
     inkscape:document-units="mm"
     inkscape:current-layer="layer1"
     showgrid="true"
     inkscape:snap-global="false"
     inkscape:window-width="1366"
     inkscape:window-height="705"
     inkscape:window-x="-8"
     inkscape:window-y="-8"
     inkscape:window-maximized="1"
     fit-margin-top="0"
     fit-margin-left="0"
     fit-margin-right="0"
     fit-margin-bottom="0">
    <inkscape:grid
       type="xygrid"
       id="grid815"
       originx="-61.696575"
       originy="-101.26341" />
  </sodipodi:namedview>
  <metadata
     id="metadata5">
    <rdf:RDF>
      <cc:Work
         rdf:about="">
        <dc:format>image/svg+xml</dc:format>
        <dc:type
           rdf:resource="http://purl.org/dc/dcmitype/StillImage" />
        <dc:title></dc:title>
      </cc:Work>
    </rdf:RDF>
  </metadata>
  <g
     inkscape:label="Layer 1"
     inkscape:groupmode="layer"
     id="layer1"
     transform="translate(-61.696553,-96.638418)">
    <g
       id="g1438">
      <circle
         r="25.794199"
         cy="122.43262"
         cx="103.1875"
         id="path819"
         style="opacity:1;fill:#65ab12;fill-opacity:1;fill-rule:nonzero;stroke:none;stroke-width:3.68488526;stroke-linecap:round;stroke-linejoin:round;stroke-miterlimit:4;stroke-dasharray:none;stroke-dashoffset:0;stroke-opacity:1;paint-order:stroke fill markers" />
      <path
         sodipodi:nodetypes="scscs"
         inkscape:connector-curvature="0"
         id="path819-7"
         d="m 103.86186,144.92003 c -22.914699,0 -42.165303,9.48898 -42.165307,44.36688 0,0 0.02664,6.27185 42.004437,6.44668 39.291,0.16364 40.97746,-6.44668 40.97746,-6.44668 0,-34.8779 -17.90187,-44.36688 -40.81659,-44.36688 z"
         style="opacity:1;fill:#65ab12;fill-opacity:1;fill-rule:nonzero;stroke:none;stroke-width:7.31259108;stroke-linecap:round;stroke-linejoin:round;stroke-miterlimit:4;stroke-dasharray:none;stroke-dashoffset:0;stroke-opacity:1;paint-order:stroke fill markers" />
    </g>
    <g
       aria-label="2020"
       style="font-style:normal;font-variant:normal;font-weight:bold;font-stretch:normal;font-size:19.4069252px;line-height:1.25;font-family:Verdana;-inkscape-font-specification:'Verdana, Bold';font-variant-ligatures:normal;font-variant-caps:normal;font-variant-numeric:normal;font-feature-settings:normal;text-align:start;letter-spacing:0px;word-spacing:0px;writing-mode:lr-tb;text-anchor:start;fill:#a2e07d;fill-opacity:1;stroke:none;stroke-width:0.48517314"
       id="text1006" />
    <g
       id="g1095"
       transform="matrix(0.94391321,0,0,0.94391321,8.4766001,-6.4248734)">
      <path
         inkscape:connector-curvature="0"
         id="rect928"
         transform="scale(0.26458333)"
         d="m 1099.2852,437.51953 v 30 c 0,12.26714 -9.0796,22.14258 -20.3575,22.14258 -11.2778,0 -20.3554,-9.87544 -20.3554,-22.14258 v -28.36914 c -21.8084,5.73861 -35.6446,25.96143 -35.6446,50.16211 v 218.50195 c 0,28.69255 19.4487,51.79297 48.5743,51.79297 h 297.746 c 29.1256,0 48.5743,-23.10042 48.5743,-51.79297 V 489.3125 c 0,-23.81188 -13.403,-43.75772 -34.6075,-49.85938 v 27.35157 c 0,12.26714 -9.0795,22.14453 -20.3574,22.14453 -11.2778,0 -20.3574,-9.87739 -20.3574,-22.14453 v -29.28516 z m 93.7089,18 c 4.0829,0 7.5096,0.60848 10.2793,1.82617 2.7697,1.19386 5.0378,2.9854 6.8047,5.37305 1.743,2.33991 3.009,5.22778 3.7969,8.66602 0.7879,3.41435 1.1816,7.36665 1.1816,11.85546 0,4.4888 -0.4069,8.5127 -1.2187,12.07032 -0.8118,3.53375 -2.0758,6.43485 -3.7949,8.70312 -1.7669,2.31605 -4.035,4.06985 -6.8047,5.26367 -2.7697,1.16994 -6.1851,1.75586 -10.2442,1.75586 -3.9874,0 -7.3896,-0.59719 -10.207,-1.79101 -2.8174,-1.19383 -5.0968,-2.96088 -6.8398,-5.30078 -1.7669,-2.33991 -3.0441,-5.24101 -3.8321,-8.70313 -0.7879,-3.48598 -1.1836,-7.47407 -1.1836,-11.96289 0,-4.63206 0.407,-8.65401 1.2188,-12.06836 0.8118,-3.41435 2.1003,-6.30418 3.8672,-8.66797 1.7669,-2.3399 4.0595,-4.0937 6.8769,-5.26367 2.8175,-1.16994 6.1839,-1.75586 10.0996,-1.75586 z m 104.293,0 c 4.0829,0 7.5096,0.60848 10.2793,1.82617 2.7697,1.19386 5.0378,2.9854 6.8047,5.37305 1.743,2.33991 3.0089,5.22778 3.7969,8.66602 0.7879,3.41435 1.1816,7.36665 1.1816,11.85546 0,4.4888 -0.405,8.5127 -1.2168,12.07032 -0.8118,3.53375 -2.0778,6.43485 -3.7969,8.70312 -1.7668,2.31605 -4.035,4.06985 -6.8047,5.26367 -2.7691,1.16994 -6.1851,1.75586 -10.2441,1.75586 -3.9874,0 -7.3896,-0.59719 -10.207,-1.79101 -2.8175,-1.19383 -5.0969,-2.96088 -6.8399,-5.30078 -1.7668,-2.33991 -3.0441,-5.24101 -3.832,-8.70313 -0.7879,-3.48598 -1.1836,-7.47407 -1.1836,-11.96289 0,-4.63206 0.4069,-8.65401 1.2188,-12.06836 0.8118,-3.41435 2.1003,-6.30418 3.8671,-8.66797 1.7669,-2.3399 4.0596,-4.0937 6.877,-5.26367 2.8174,-1.16994 6.1838,-1.75586 10.0996,-1.75586 z m -157.0488,0.0352 c 6.6854,0 11.7833,1.40912 15.2929,4.22656 3.5099,2.79357 5.2657,6.75714 5.2657,11.89063 0,3.36658 -0.8477,6.56531 -2.543,9.59765 -1.6714,3.03232 -4.2371,6.16141 -7.6992,9.38477 -2.1728,2.00564 -4.358,3.85556 -6.5547,5.55078 -2.1966,1.67138 -3.7602,2.84122 -4.6914,3.50976 h 23.959 v 10.20704 h -41.8672 v -8.81055 c 3.1995,-2.31602 6.3982,-4.77442 9.5976,-7.37695 3.2234,-2.60256 5.8024,-4.84812 7.7364,-6.73438 2.889,-2.79355 4.9424,-5.22741 6.1601,-7.30469 1.2177,-2.07725 1.8262,-4.13062 1.8262,-6.16015 0,-2.43541 -0.7874,-4.30982 -2.3633,-5.62305 -1.552,-1.33707 -3.7956,-2.00586 -6.7324,-2.00586 -2.1967,0 -4.5138,0.45401 -6.9492,1.36133 -2.4116,0.90731 -4.6552,2.06395 -6.7324,3.47265 h -1.1465 v -11.85351 c 1.6952,-0.74016 4.1913,-1.48052 7.4863,-2.2207 3.3189,-0.74019 6.6362,-1.11133 9.9551,-1.11133 z m 104.2929,0 c 6.6855,0 11.7831,1.40912 15.293,4.22656 3.5099,2.79357 5.2656,6.75714 5.2656,11.89063 0,3.36656 -0.8477,6.56531 -2.5429,9.59765 -1.6714,3.03232 -4.2371,6.16141 -7.6992,9.38477 -2.1728,2.00564 -4.3581,3.85556 -6.5547,5.55078 -2.1967,1.67138 -3.7602,2.84122 -4.6914,3.50976 h 23.9589 v 10.20704 h -41.8671 v -8.81055 c 3.1994,-2.31602 6.3981,-4.77444 9.5976,-7.37695 3.2234,-2.60256 5.8023,-4.84812 7.7363,-6.73438 2.8891,-2.79355 4.9425,-5.22741 6.1602,-7.30469 1.2177,-2.07725 1.8262,-4.13062 1.8262,-6.16015 0,-2.43541 -0.7874,-4.30982 -2.3633,-5.62305 -1.552,-1.33707 -3.7956,-2.00586 -6.7324,-2.00586 -2.1967,0 -4.5142,0.45401 -6.9492,1.36133 -2.4116,0.90731 -4.6552,2.06395 -6.7325,3.47265 h -1.1465 v -11.85351 c 1.6953,-0.74016 4.1914,-1.48052 7.4864,-2.2207 3.3188,-0.74019 6.6366,-1.11133 9.955,-1.11133 z m -51.5371,9.81445 c -2.9368,0 -5.0372,1.37334 -6.3027,4.11914 -1.2655,2.72194 -1.8984,7.32978 -1.8984,13.82422 0,6.32731 0.6442,10.88807 1.9336,13.68164 1.2893,2.79355 3.3785,4.18945 6.2675,4.18945 2.8891,0 4.9783,-1.3959 6.2676,-4.18945 1.2893,-2.79357 1.9336,-7.37885 1.9336,-13.75391 0,-6.44669 -0.633,-11.03001 -1.8984,-13.75195 -1.2655,-2.7458 -3.3659,-4.11914 -6.3028,-4.11914 z m 104.293,0 c -2.9368,0 -5.0373,1.37334 -6.3027,4.11914 -1.2655,2.72194 -1.8985,7.32978 -1.8985,13.82422 0,6.32731 0.6443,10.88807 1.9336,13.68164 1.2894,2.79355 3.3785,4.18945 6.2676,4.18945 2.8891,0 4.9782,-1.3959 6.2676,-4.18945 1.2893,-2.79357 1.9336,-7.37885 1.9336,-13.75391 0,-6.44669 -0.631,-11.03001 -1.8965,-13.75195 -1.2655,-2.7458 -3.3679,-4.11914 -6.3047,-4.11914 z m -217.043,58.48828 h 280.2618 c 17.5911,0 31.7519,13.95174 31.7519,31.28125 V 703.6602 c 0,17.32955 -14.1608,31.27929 -31.7519,31.27929 h -280.2618 c -17.5911,0 -31.7519,-13.94974 -31.7519,-31.27929 V 555.13867 c 0,-17.32951 14.1608,-31.28125 31.7519,-31.28125 z"
         style="opacity:1;fill:#000000;fill-opacity:1;fill-rule:nonzero;stroke:none;stroke-width:9.71306419;stroke-linecap:round;stroke-linejoin:round;stroke-miterlimit:4;stroke-dasharray:none;stroke-dashoffset:0;stroke-opacity:1;paint-order:stroke fill markers" />
      <rect
         ry="0"
         y="159.70016"
         x="283.63257"
         height="12.662203"
         width="20.487875"
         id="rect933"
         style="opacity:1;fill:#000000;fill-opacity:1;fill-rule:nonzero;stroke:none;stroke-width:2.64583325;stroke-linecap:round;stroke-linejoin:round;stroke-miterlimit:4;stroke-dasharray:none;stroke-dashoffset:0;stroke-opacity:1;paint-order:stroke fill markers" />
      <rect
         ry="0"
         y="159.70016"
         x="312.64694"
         height="12.662203"
         width="20.487875"
         id="rect933-9"
         style="opacity:1;fill:#000000;fill-opacity:1;fill-rule:nonzero;stroke:none;stroke-width:2.64583325;stroke-linecap:round;stroke-linejoin:round;stroke-miterlimit:4;stroke-dasharray:none;stroke-dashoffset:0;stroke-opacity:1;paint-order:stroke fill markers" />
      <rect
         ry="0"
         y="175.57515"
         x="312.64694"
         height="12.662203"
         width="20.487875"
         id="rect933-5"
         style="opacity:1;fill:#000000;fill-opacity:1;fill-rule:nonzero;stroke:none;stroke-width:2.64583325;stroke-linecap:round;stroke-linejoin:round;stroke-miterlimit:4;stroke-dasharray:none;stroke-dashoffset:0;stroke-opacity:1;paint-order:stroke fill markers" />
      <rect
         ry="0"
         y="159.70016"
         x="341.84088"
         height="12.662203"
         width="20.487875"
         id="rect933-6"
         style="opacity:1;fill:#000000;fill-opacity:1;fill-rule:nonzero;stroke:none;stroke-width:2.64583325;stroke-linecap:round;stroke-linejoin:round;stroke-miterlimit:4;stroke-dasharray:none;stroke-dashoffset:0;stroke-opacity:1;paint-order:stroke fill markers" />
      <rect
         ry="0"
         y="175.57515"
         x="341.84088"
         height="12.662203"
         width="20.487875"
         id="rect933-8"
         style="opacity:1;fill:#000000;fill-opacity:1;fill-rule:nonzero;stroke:none;stroke-width:2.64583325;stroke-linecap:round;stroke-linejoin:round;stroke-miterlimit:4;stroke-dasharray:none;stroke-dashoffset:0;stroke-opacity:1;paint-order:stroke fill markers" />
      <rect
         ry="0"
         y="175.57515"
         x="283.63257"
         height="12.662203"
         width="20.487875"
         id="rect933-2"
         style="opacity:1;fill:#000000;fill-opacity:1;fill-rule:nonzero;stroke:none;stroke-width:2.64583325;stroke-linecap:round;stroke-linejoin:round;stroke-miterlimit:4;stroke-dasharray:none;stroke-dashoffset:0;stroke-opacity:1;paint-order:stroke fill markers" />
      <rect
         ry="0"
         y="143.63617"
         x="341.84088"
         height="12.662203"
         width="20.487875"
         id="rect933-6-0"
         style="opacity:1;fill:#000000;fill-opacity:1;fill-rule:nonzero;stroke:none;stroke-width:2.64583325;stroke-linecap:round;stroke-linejoin:round;stroke-miterlimit:4;stroke-dasharray:none;stroke-dashoffset:0;stroke-opacity:1;paint-order:stroke fill markers" />
      <rect
         ry="0"
         y="143.63617"
         x="312.64694"
         height="12.662203"
         width="20.487875"
         id="rect933-6-9"
         style="opacity:1;fill:#000000;fill-opacity:1;fill-rule:nonzero;stroke:none;stroke-width:2.64583325;stroke-linecap:round;stroke-linejoin:round;stroke-miterlimit:4;stroke-dasharray:none;stroke-dashoffset:0;stroke-opacity:1;paint-order:stroke fill markers" />
      <rect
         ry="5.175621"
         y="105.78186"
         x="357.09305"
         height="20.702484"
         width="6.8035717"
         id="rect1023-9"
         style="opacity:1;fill:#000000;fill-opacity:1;fill-rule:nonzero;stroke:none;stroke-width:1.65475786;stroke-linecap:round;stroke-linejoin:round;stroke-miterlimit:4;stroke-dasharray:none;stroke-dashoffset:0;stroke-opacity:1;paint-order:stroke fill markers" />
      <rect
         ry="5.1756215"
         y="105.67376"
         x="282.4805"
         height="20.702486"
         width="6.2366076"
         id="rect1023-9-9"
         style="opacity:1;fill:#000000;fill-opacity:1;fill-rule:nonzero;stroke:none;stroke-width:1.58431005;stroke-linecap:round;stroke-linejoin:round;stroke-miterlimit:4;stroke-dasharray:none;stroke-dashoffset:0;stroke-opacity:1;paint-order:stroke fill markers" />
    </g>
    <path
       style="opacity:1;fill:#000000;fill-opacity:1;fill-rule:nonzero;stroke:none;stroke-width:1.65994096;stroke-linecap:round;stroke-linejoin:round;stroke-miterlimit:4;stroke-dasharray:none;stroke-dashoffset:0;stroke-opacity:1;paint-order:stroke fill markers"
       d="m 474.26002,182.2176 c 6.03303,12.31841 11.54135,21.05662 19.871,31.9528 -1.94447,6.309 -13.25913,1.45223 -9.68094,-4.32577 11.00406,-24.94873 28.30349,-48.12738 44.67596,-67.54027 4.3319,-5.13635 9.04821,-9.55401 14.01281,-14.49027 7.7326,-6.74485 17.02032,3.78517 5.90939,7.34082 -3.64842,0.81858 -11.35645,7.20156 -15.50878,12.33984 -19.90544,24.63196 -25.08022,45.64386 -33.83079,67.68815 -4.12753,6.30266 -12.38368,3.9737 -17.93011,-1.95667 -9.57299,-12.23783 -16.26135,-20.92167 -22.80445,-33.77685 -1.52596,-6.02 7.56636,-10.98293 11.66907,-6.19208 1.20142,1.76651 0.94066,3.00821 3.61684,8.9603 z"
       id="path1234"
       inkscape:connector-curvature="0"
       sodipodi:nodetypes="cccsccsccccc" />
  </g>
</svg>
